<?xml version="1.0" standalone="no"?>
<!DOCTYPE svg PUBLIC "-//W3C//DTD SVG 20010904//EN"
 "http://www.w3.org/TR/2001/REC-SVG-20010904/DTD/svg10.dtd">
<svg version="1.0" xmlns="http://www.w3.org/2000/svg"
 width="300.000000pt" height="300.000000pt" viewBox="0 0 300.000000 300.000000"
 preserveAspectRatio="xMidYMid meet">
<metadata>
Created by potrace 1.14, written by Peter Selinger 2001-2017
</metadata>
<g transform="translate(0.000000,300.000000) scale(0.100000,-0.100000)"
fill="#000000" stroke="none">
<path d="M1030 1946 l0 -315 -82 -25 c-99 -29 -365 -106 -370 -106 -2 0 -3 70
-3 155 0 97 -3 156 -10 158 -5 2 -134 3 -285 3 l-275 -1 -3 -537 c-1 -296 0
-538 2 -538 3 0 17 5 33 11 15 6 111 40 213 74 102 35 345 118 540 185 195 67
432 148 527 180 95 32 176 61 182 64 10 7 44 -4 376 -117 121 -41 419 -143
663 -226 244 -83 448 -153 453 -156 5 -4 9 291 9 749 l0 756 -985 0 -985 0 0
-314z m1867 70 l-2 -131 -710 0 -710 0 -3 -265 -2 -266 -223 -72 c-122 -40
-420 -138 -661 -217 -242 -80 -442 -142 -445 -139 -3 3 -6 181 -6 395 l0 389
150 0 151 0 0 -200 c-1 -110 2 -200 5 -200 5 0 144 44 409 128 69 22 166 53
215 69 l90 29 2 294 c0 162 2 300 2 306 1 7 267 10 870 10 l869 0 -1 -130z m1
-681 c0 -228 -2 -415 -4 -415 -4 0 -795 265 -1166 391 l-158 54 0 126 c0 69 2
128 5 130 2 3 69 -16 147 -42 158 -52 495 -162 717 -233 79 -25 147 -44 150
-40 3 3 6 35 6 72 l0 67 -140 46 c-125 41 -388 126 -655 211 -52 16 -104 34
-115 38 -11 5 257 9 596 9 l617 1 0 -415z"/>
</g>
</svg>
